<?xml version="1.0" standalone="no"?><!-- Generator: Gravit.io --><svg xmlns="http://www.w3.org/2000/svg" xmlns:xlink="http://www.w3.org/1999/xlink" style="isolation:isolate" viewBox="0 0 240 240" width="240" height="240"><defs><clipPath id="_clipPath_Wto8Ff2r3bQHQhxQG4kvFXMtE3eePrea"><rect width="240" height="240"/></clipPath></defs><g clip-path="url(#_clipPath_Wto8Ff2r3bQHQhxQG4kvFXMtE3eePrea)"><g><radialGradient id="_rgradient_1" fx="0.5" fy="0.5" cx="0.5" cy="0.5" r="0.5" gradientTransform="matrix(2,0,0,2,-1,-1)" gradientUnits="userSpaceOnUse"><stop offset="0%" stop-opacity="1" style="stop-color:rgb(255,119,0)"/><stop offset="43.47826086956522%" stop-opacity="1" style="stop-color:rgb(255,136,0)"/><stop offset="75.65217391304347%" stop-opacity="1" style="stop-color:rgb(255,119,0)"/><stop offset="100%" stop-opacity="1" style="stop-color:rgb(255,111,0)"/></radialGradient><circle vector-effect="non-scaling-stroke" cx="0" cy="0" r="1" transform="matrix(105,0,0,105,120,120)" fill="url(#_rgradient_1)"/><g><path d=" M 22.989 120 C 22.989 66.458 66.458 22.989 120 22.989 C 173.542 22.989 217.011 66.458 217.011 120 C 217.011 173.542 173.542 217.011 120 217.011 C 66.458 217.011 22.989 173.542 22.989 120 Z  M 35.115 120 C 35.115 73.151 73.151 35.115 120 35.115 C 166.849 35.115 204.885 73.151 204.885 120 C 204.885 166.849 166.849 204.885 120 204.885 C 73.151 204.885 35.115 166.849 35.115 120 Z " fill-rule="evenodd" fill="rgb(235,235,235)"/><g><rect x="114.543" y="32.387" width="10.914" height="176.439" transform="matrix(1,0,0,1,0,0)" fill="rgb(235,235,235)"/><rect x="114.543" y="32.387" width="10.914" height="176.439" transform="matrix(0.707,-0.707,0.707,0.707,-50.134,120.178)" fill="rgb(235,235,235)"/><rect x="114.543" y="32.387" width="10.914" height="176.439" transform="matrix(-0.707,-0.707,0.707,-0.707,119.571,290.741)" fill="rgb(235,235,235)"/><rect x="114.543" y="32.387" width="10.914" height="176.439" transform="matrix(0,-1,1,0,-0.606,240.606)" fill="rgb(235,235,235)"/></g></g></g></g></svg>